<?xml version="1.0" encoding="utf-8"?>
<!-- Generator: Adobe Illustrator 21.0.2, SVG Export Plug-In . SVG Version: 6.00 Build 0)  -->
<svg version="1.1" id="Layer_1" xmlns="http://www.w3.org/2000/svg" xmlns:xlink="http://www.w3.org/1999/xlink" x="0px" y="0px"
	 viewBox="0 0 156 136" style="enable-background:new 0 0 156 136;" xml:space="preserve">
<style type="text/css">
	.st0{fill:#00AB6C;}
	.st1{fill:#0BE370;}
</style>
<g transform="translate(0.000000,136.000000) scale(0.100000,-0.100000)">
	<path class="st0" d="M216,1310C207,1269,20,56,20,38c0-17,18-18,238-18h239l25,178l26,177l-51,98c-28,53-53,94-57,90
		c-4-5-19-91-34-193s-30-195-33-207c-4-20-12-22-99-25c-78-2-94,0-94,12c0,31,102,736,109,754c5,14,65-89,246-428
		C667,231,777,30,780,30s114,201,245,446c177,330,241,441,247,427c6-17,109-724,108-750c0-10-26-13-94-13h-94l-6,27
		c-3,16-17,109-32,208s-30,183-33,187c-4,4-29-35-57-87l-50-95l25-180l25-180h241h241l-38,243c-21,133-65,420-98,637
		c-34,217-64,403-68,413c-5,13-83-123-282-493C909,540,783,310,780,310S656,532,510,802s-270,501-277,512
		C222,1335,222,1335,216,1310z"/>
	<path class="st1" d="M523,1121l-32-210l50-93c28-51,52-94,54-96c1-2,8,42,15,98c7,55,16,100,19,100c4,0,34-53,68-117
		c92-176,77-174,158-18c39,74,73,135,76,135s12-45,19-100c7-56,14-100,15-98s26,45,54,96l51,93l-32,209c-18,116-35,210-38,210
		s-52-88-108-195c-57-107-107-195-111-195s-55,88-112,195s-106,195-109,195S541,1236,523,1121z"/>
</g>
</svg>
